<?xml version="1.0" encoding="utf-8"?>
<!-- Generator: Adobe Illustrator 21.0.2, SVG Export Plug-In . SVG Version: 6.00 Build 0)  -->
<svg version="1.1" id="Слой_1" xmlns="http://www.w3.org/2000/svg" xmlns:xlink="http://www.w3.org/1999/xlink" x="0px" y="0px"
	 viewBox="0 0 18 18" enable-background="new 0 0 18 18" xml:space="preserve">
<path d="M17.636,14.237l-2.786-2.787c-0.555-0.553-1.474-0.536-2.048,0.039l-1.404,1.403c-0.089-0.049-0.18-0.1-0.277-0.154
	c-0.886-0.491-2.1-1.164-3.376-2.442c-1.28-1.28-1.954-2.495-2.447-3.382C5.246,6.82,5.197,6.73,5.147,6.644l0.942-0.941
	l0.463-0.464C7.128,4.664,7.144,3.745,6.59,3.191L3.804,0.404C3.25-0.149,2.331-0.132,1.756,0.443L0.992,1.254
	C0.728,1.59,0.509,1.977,0.345,2.395C0.194,2.793,0.1,3.172,0.057,3.553c-0.368,3.05,1.026,5.837,4.808,9.62
	c5.228,5.228,9.442,4.833,9.624,4.814c0.396-0.047,0.775-0.142,1.161-0.292c0.414-0.162,0.801-0.381,1.137-0.644l0.813-0.764
	C18.173,15.711,18.19,14.792,17.636,14.237L17.636,14.237z M17.623,14.226"/>
</svg>
