<?xml version="1.0" encoding="utf-8"?>
<!-- Generator: Adobe Illustrator 21.0.2, SVG Export Plug-In . SVG Version: 6.00 Build 0)  -->
<svg version="1.1" id="Слой_1" xmlns="http://www.w3.org/2000/svg" xmlns:xlink="http://www.w3.org/1999/xlink" x="0px" y="0px"
	 viewBox="0 0 64 64" enable-background="new 0 0 64 64" xml:space="preserve">
<path fill-rule="evenodd" clip-rule="evenodd" fill="#1E9F38" d="M45.774,10.413c0.466-0.108,0.92-0.206,1.348-0.285
	c-0.451,0.065-0.93,0.149-1.422,0.243c-1.071-0.631-2.188-1.19-3.348-1.668c1.014-0.381,1.959-0.694,2.813-0.925
	c-0.907,0.203-1.915,0.493-2.998,0.852c-1.004-0.405-2.036-0.752-3.096-1.033c1.412-0.74,2.693-1.32,3.795-1.711
	c-1.175,0.351-2.55,0.909-4.071,1.639c-0.909-0.23-1.837-0.408-2.78-0.54c1.676-1.147,3.162-1.994,4.382-2.474
	c-1.318,0.47-2.917,1.301-4.712,2.432c-0.796-0.101-1.602-0.167-2.418-0.195c1.767-1.501,3.314-2.55,4.549-3.039
	c-1.316,0.474-2.995,1.523-4.912,3.03c-0.184-0.004-0.366-0.014-0.55-0.014c-0.521,0-1.037,0.019-1.55,0.049
	c1.749-1.82,3.267-3.001,4.431-3.409C33.957,3.78,32.31,4.973,30.41,6.803c-0.602,0.044-1.199,0.105-1.789,0.189
	c0.164-0.203,0.327-0.402,0.49-0.59c0.685-0.86,1.313-1.49,1.942-2.006c0.343-0.229,0.572-0.401,0.858-0.573
	c0.286-0.115,0.57-1.032,0.854-1.662c-0.342,0.63-0.625,1.548-0.911,1.662c-0.343,0.172-0.629,0.344-0.915,0.573
	c-0.686,0.516-1.372,1.146-2.171,1.949c-0.205,0.229-0.412,0.469-0.622,0.718c-0.513,0.082-1.02,0.183-1.522,0.294
	c0.221-0.341,0.44-0.666,0.653-0.955c0.57-0.802,1.142-1.376,1.599-1.719c0.514-0.401,0.852-2.178,1.249-3.554
	c-0.454,1.376-0.791,3.152-1.363,3.554c-0.572,0.401-1.143,0.917-1.771,1.719c-0.258,0.317-0.521,0.674-0.788,1.052
	c-0.463,0.111-0.922,0.233-1.375,0.368c0.225-0.441,0.449-0.839,0.674-1.191c0.513-0.688,0.972-0.63,1.254-2.063
	c0.224-1.376,0.449-2.694,0.673-4.127c-0.282,1.376-0.564,2.751-0.845,4.127c-0.282,1.376-0.797,1.433-1.311,2.121
	c-0.28,0.37-0.56,0.788-0.84,1.251c-0.404,0.127-0.803,0.264-1.198,0.41c0.198-0.461,0.399-0.867,0.606-1.203
	c0.057-0.172,0.171-0.287,0.285-0.401c0.057-0.115,0.229,0,0.228-0.344c0.055-0.745,0.11-1.376,0.107-2.121
	c0.052-1.433,0.162-2.751,0.215-4.184c-0.11,1.433-0.22,2.751-0.329,4.184c-0.055,0.688-0.11,1.376-0.222,2.121
	c0.001,0.344-0.114,0.287-0.228,0.459c-0.115,0.057-0.229,0.229-0.343,0.344c-0.258,0.363-0.51,0.809-0.758,1.319
	c-0.354,0.138-0.704,0.283-1.051,0.436c0.152-0.458,0.316-0.841,0.492-1.124l0-0.057c0.285-0.401,0.05-2.063-0.07-3.496
	c-0.062-1.433-0.182-2.808-0.301-4.184c0.062,1.376,0.124,2.751,0.187,4.184c0.062,1.433,0.298,3.152-0.102,3.668
	c-0.217,0.308-0.42,0.713-0.611,1.193c-0.332,0.154-0.659,0.314-0.984,0.481c0.099-0.426,0.226-0.763,0.393-0.987
	c-0.468-2.637-1.108-5.445-1.634-8.253c0.468,2.808,0.879,5.502,1.347,8.311c0.059,0.344-0.114,0.287-0.171,0.401
	c-0.057,0.115-0.114,0.287-0.171,0.401c-0.032,0.098-0.064,0.198-0.097,0.297c-0.327,0.174-0.649,0.357-0.967,0.544
	c0.008-0.075,0.019-0.146,0.035-0.211c0.057-0.115,0.057-0.229,0.113-0.344c0-0.057-0.116-0.401-0.232-0.745
	c-0.869-2.694-1.681-5.273-2.55-8.024c0.755,2.751,1.509,5.33,2.321,8.082c0.185,0.729,0.159,1.087,0.085,1.374
	c-0.337,0.203-0.668,0.414-0.994,0.632c0-0.017-0.002-0.041-0.002-0.057c0.056-0.401,0.057-0.115-0.059-0.458
	c-0.173-0.344-0.289-0.63-0.462-0.974c-1.155-2.579-2.31-5.044-3.523-7.623c1.098,2.637,2.138,5.101,3.294,7.738
	c0.116,0.344,0.231,0.63,0.405,0.974c0.116,0.344,0.116,0.458,0.059,0.516c-0.007,0.029-0.011,0.059-0.017,0.089
	c-0.289,0.199-0.575,0.402-0.856,0.611c-0.078-0.199-0.587-0.92-0.907-1.502c-1.499-2.407-2.94-4.757-4.438-7.164
	c1.384,2.465,2.768,4.814,4.152,7.336c0.302,0.499,0.777,1.26,0.895,1.561c-0.296,0.228-0.588,0.459-0.874,0.699
	c-0.108-0.262-0.403-0.412-0.589-0.598c-0.23-0.287-0.403-0.573-0.633-0.86c-1.785-2.235-3.454-4.356-5.239-6.591
	c1.67,2.293,3.283,4.471,5.01,6.763c0.371,0.527,0.741,1.054,1.112,1.581c-0.293,0.255-0.58,0.515-0.862,0.782
	c-0.476-0.474-0.911-0.908-1.393-1.389c-2.013-2.006-3.968-3.897-5.981-5.903c1.956,2.063,3.797,4.069,5.753,6.133
	c0.489,0.488,0.926,0.927,1.362,1.408c-0.278,0.271-0.549,0.549-0.815,0.832c-0.514-0.366-0.994-0.734-1.517-1.152
	c-2.241-1.719-4.425-3.382-6.667-5.158c2.184,1.834,4.311,3.554,6.495,5.388c0.464,0.412,0.935,0.781,1.441,1.184
	c-0.276,0.302-0.543,0.611-0.805,0.925c-0.494-0.322-1.01-0.617-1.491-0.905c-2.47-1.433-4.767-2.866-7.237-4.299
	c2.413,1.547,4.653,2.98,7.066,4.528c0.469,0.327,0.945,0.647,1.445,0.943c-0.28,0.346-0.55,0.7-0.812,1.06
	c-0.128-0.087-0.258-0.18-0.397-0.226c-0.287-0.172-0.631-0.287-0.919-0.459c-2.583-1.146-5.109-2.235-7.692-3.439
	c2.526,1.261,4.995,2.465,7.579,3.725c0.287,0.115,0.574,0.287,0.919,0.458c0.124,0.041,0.233,0.112,0.338,0.184
	c-0.25,0.352-0.492,0.711-0.725,1.075c-0.341-0.108-0.75-0.254-1.1-0.342c-2.697-0.86-5.336-1.662-8.033-2.465
	c2.697,0.917,5.222,1.777,7.919,2.751c0.334,0.111,0.707,0.248,1.023,0.355c-0.242,0.39-0.475,0.786-0.696,1.189
	c-0.222-0.037-0.444-0.074-0.666-0.111c-2.81-0.516-5.449-1.032-8.259-1.49c2.753,0.573,5.392,1.146,8.202,1.777
	c0.189,0.031,0.378,0.066,0.568,0.107c-0.233,0.437-0.451,0.883-0.659,1.334c-0.044-0.002-0.085-0.004-0.133-0.008
	c-2.809-0.172-5.503-0.287-8.37-0.459c2.809,0.229,5.504,0.516,8.371,0.745c0.002,0,0.004,0,0.006,0.001
	c-0.227,0.508-0.442,1.023-0.637,1.547c-0.151,0-0.302,0-0.453,0c-0.344,0.057-0.688,0.057-1.031,0.115
	c-0.688,0-1.375,0.057-2.12,0.115C2.808,24.055,1.433,24.17,0,24.227c1.433,0,2.808-0.057,4.184-0.115c0.745,0,1.433,0,2.12-0.057
	c0.344,0,0.688,0,1.032,0c0.113,0,0.23,0,0.343-0.001c-0.195,0.543-0.367,1.096-0.527,1.655c-0.702,0.235-1.744,0.366-2.732,0.524
	c-1.375,0.287-2.692,0.516-4.124,0.802c1.432-0.229,2.75-0.401,4.182-0.63c0.687-0.115,1.375-0.229,2.062-0.287
	c0.207-0.035,0.38-0.075,0.53-0.12c-0.18,0.659-0.337,1.327-0.466,2.006c-0.209,0.062-0.486,0.11-0.687,0.177
	c-0.286,0.115-0.63,0.172-0.973,0.287c-1.374,0.459-2.634,0.86-4.008,1.261c1.374-0.344,2.691-0.745,4.066-1.089
	c0.344-0.115,0.63-0.229,0.973-0.287c0.19-0.063,0.413-0.109,0.596-0.157c-0.126,0.69-0.231,1.388-0.302,2.096
	c-0.121,0.12-0.293,0.237-0.572,0.354c-1.259,0.573-2.518,1.146-3.834,1.719c1.316-0.573,2.575-1.089,3.892-1.605
	c0.238-0.099,0.39-0.191,0.498-0.282c-0.062,0.67-0.094,1.347-0.105,2.03c-0.032,0.066-0.071,0.136-0.1,0.2
	c-0.284,0.688-1.715,1.376-2.916,2.121c0.629-0.344,1.201-0.688,1.83-1.032c0.629-0.344,0.915-0.63,1.086-0.917
	c0.026-0.059,0.065-0.12,0.095-0.18c-0.001,0.11-0.008,0.22-0.007,0.33c0.002,0.633,0.035,1.258,0.081,1.879
	C6.05,35.302,5.885,35.64,5.83,35.977c-0.113,0.344-0.57,0.745-1.142,1.204c0.286-0.229,0.572-0.401,0.858-0.631
	c0.286-0.229,0.228-0.344,0.285-0.516c0.114-0.287,0.227-0.63,0.398-0.974c0,0,0.001-0.001,0.001-0.001
	c0.069,0.867,0.18,1.721,0.331,2.563c-0.272,0.683-0.458,1.305-0.546,1.852c0.097-0.494,0.293-1.059,0.576-1.686
	c0.221,1.185,0.52,2.342,0.893,3.466c-0.129,0.445-0.236,0.867-0.312,1.258c0.083-0.369,0.198-0.768,0.336-1.187
	c0.364,1.084,0.791,2.14,1.287,3.157c-0.022,0.127-0.048,0.258-0.067,0.38c0.022-0.115,0.052-0.24,0.078-0.359
	c4.288,8.774,13.298,14.838,23.731,14.838c14.501,0,26.267-11.807,26.216-26.308C58.718,23.425,53.504,15.005,45.774,10.413z
	 M27.048,20.809c7.524,1.28,15.423,3.2,20.442,4.906c-5.071-1.493-13.023-3.093-20.599-4.16c-0.373,0-0.693-0.053-1.067-0.107
	c0.32,0.107,0.641,0.213,1.015,0.373c7.314,2.186,15.056,4.959,19.97,7.199c-5.02-1.973-12.868-4.48-20.234-6.506
	c-0.32-0.053-0.694-0.107-1.067-0.213c0.374,0.16,0.694,0.32,1.015,0.48c6.997,3.093,14.422,6.773,19.125,9.492
	c-4.862-2.506-12.393-5.919-19.496-8.799c-0.32-0.107-0.641-0.213-1.015-0.373c0.321,0.213,0.588,0.373,0.909,0.587
	c6.52,4,13.575,8.533,18.066,11.679c-4.65-2.986-11.811-7.199-18.49-10.986c-0.321-0.16-0.588-0.32-0.962-0.48
	c0.321,0.213,0.588,0.427,0.856,0.693c5.99,4.8,12.461,10.079,16.686,13.652c-4.385-3.413-11.122-8.479-17.217-13.012
	c-0.267-0.213-0.588-0.427-0.856-0.64c0.214,0.267,0.482,0.533,0.696,0.8c5.352,5.546,11.186,11.519,15.093,15.465
	c-4.066-3.786-10.166-9.599-15.624-14.879c-0.321-0.267-0.535-0.48-0.802-0.747c0.214,0.32,0.375,0.64,0.59,0.907
	c4.608,6.133,9.697,12.745,13.232,17.012c-3.747-4.16-9.103-10.559-13.87-16.532c-0.214-0.267-0.428-0.533-0.696-0.8
	c0.161,0.32,0.376,0.64,0.537,0.96c3.756,6.719,8.101,13.812,11.156,18.345c-3.322-4.48-7.932-11.412-11.848-17.918
	c-0.214-0.32-0.375-0.587-0.59-0.907c0.108,0.373,0.269,0.693,0.377,1.013c2.905,7.146,6.344,14.559,9.027,19.358
	c-2.896-4.746-6.655-12.052-9.719-18.985c-0.161-0.373-0.322-0.693-0.484-1.013c0.108,0.373,0.163,0.747,0.27,1.067
	c1.999,7.413,4.586,15.092,6.683,20.052c-2.364-4.906-5.217-12.532-7.428-19.785c-0.108-0.373-0.216-0.693-0.323-1.013
	c0.055,0.373,0.056,0.693,0.11,1.067c1.093,7.626,2.773,15.359,4.337,20.425c-1.831-5.066-3.778-12.799-5.084-20.265
	c-0.055-0.373-0.162-0.693-0.217-1.067c0.001,0.373,0.002,0.693,0.004,1.067c0.24,7.679,0.96,15.359,2.045,20.425
	c-1.298-5.12-2.338-12.799-2.791-20.318c-0.001-0.373-0.056-0.747-0.057-1.12c-0.052,0.373-0.104,0.747-0.156,1.12
	c-0.667,7.573-0.747,15.092-0.197,20.052c-0.764-5.066-0.951-12.586-0.497-20.105c-0.001-0.373-0.002-0.693-0.004-1.066
	c-0.052,0.32-0.158,0.693-0.21,1.013c-1.52,7.466-2.349,14.612-2.279,19.358c-0.284-4.853,0.331-12.106,1.585-19.465
	c0.052-0.373,0.104-0.693,0.156-1.067c-0.105,0.373-0.264,0.693-0.37,1.013c-2.268,7.146-3.738,13.865-4.042,18.292
	c0.091-4.533,1.4-11.412,3.402-18.505c0.106-0.32,0.211-0.693,0.263-1.013c-0.106,0.32-0.318,0.64-0.423,0.96
	c-2.963,6.719-5.021,12.959-5.594,16.958c0.412-4.16,2.31-10.506,5.006-17.278c0.106-0.32,0.264-0.64,0.37-0.96
	c-0.212,0.267-0.371,0.587-0.53,0.853c-3.551,6.293-6.038,11.946-6.719,15.465c0.574-3.733,2.9-9.493,6.184-15.839
	c0.159-0.267,0.318-0.587,0.477-0.907c-0.212,0.267-0.425,0.533-0.637,0.8c-3.771,5.385-6.424,10.07-7.311,13.141
	c-0.004-0.013-0.007-0.027-0.01-0.04c0.82-3.232,3.272-8.15,6.84-13.581c0.318-0.533,0.212-0.373,0.53-0.853
	c-0.372,0.427-0.319,0.32-0.744,0.693C10.2,30.34,7.588,33.861,6.493,36.323c-0.007-0.056-0.014-0.112-0.021-0.168
	c1.033-2.629,3.506-6.289,6.994-10.44c0.212-0.267,0.425-0.533,0.637-0.8c-0.266,0.213-0.478,0.427-0.691,0.64
	c-2.392,2.133-4.305,4.106-5.633,5.813c-0.63,0.827-1.12,1.518-1.484,2.16c-0.001-0.058-0.003-0.116-0.004-0.174
	c0.356-0.69,0.799-1.426,1.38-2.253c1.327-1.813,3.133-3.84,5.418-6.133c0.213-0.213,0.425-0.427,0.691-0.64
	c-0.266,0.16-0.479,0.32-0.745,0.48c-2.5,1.867-4.361,3.52-5.635,4.96c-0.42,0.456-0.762,0.888-1.028,1.298
	c0.006-0.077,0.01-0.155,0.017-0.233c0.246-0.415,0.555-0.861,0.957-1.332c1.275-1.547,3.082-3.306,5.475-5.226
	c0.266-0.213,0.479-0.427,0.691-0.587c-0.266,0.107-0.479,0.213-0.745,0.373c-2.501,1.546-4.363,2.88-5.479,4.053
	c-0.276,0.277-0.471,0.513-0.656,0.744c0.015-0.095,0.033-0.189,0.05-0.283c0.171-0.226,0.355-0.476,0.606-0.728
	c1.115-1.28,2.923-2.773,5.371-4.373c0.213-0.16,0.479-0.32,0.692-0.48c-0.266,0.107-0.479,0.213-0.746,0.267
	c-2.449,1.227-4.258,2.293-5.268,3.253c-0.107,0.134-0.213,0.254-0.306,0.368c0.024-0.098,0.043-0.197,0.068-0.294
	c0.084-0.111,0.176-0.225,0.291-0.34c1.009-1.067,2.765-2.293,5.16-3.573c0.266-0.16,0.479-0.267,0.745-0.427
	c-0.266,0.107-0.479,0.16-0.746,0.213c-2.45,0.853-4.101,1.653-4.898,2.453c-0.027,0.027-0.055,0.053-0.086,0.078
	c0.034-0.105,0.069-0.209,0.105-0.313c0.011-0.011,0.024-0.021,0.034-0.032c0.85-0.853,2.5-1.813,4.896-2.773
	c0.213-0.107,0.426-0.213,0.692-0.32c-0.213,0.053-0.48,0.053-0.693,0.107c-2.336,0.531-3.876,1.116-4.466,1.753
	c0.045-0.114,0.087-0.23,0.134-0.343c0.723-0.715,2.18-1.382,4.436-2.049l0,0.053c0.213-0.107,0.426-0.16,0.692-0.267
	c-0.213,0.053-0.426,0.053-0.64,0.053c-1.12,0.107-2.026,0.267-2.718,0.427c-0.373,0.107-0.639,0.213-0.852,0.32
	c-0.106,0.053-0.213,0.107-0.319,0.16c-0.005,0.005-0.019,0.007-0.027,0.011c0.047-0.099,0.1-0.195,0.149-0.293
	c0.588-0.101,0.686-0.423,1.208-0.624c0.693-0.213,1.598-0.427,2.718-0.64c0.213,0,0.426-0.053,0.64-0.107
	c-0.213,0-0.427-0.053-0.587-0.053c-1.067-0.053-1.867,0-2.506,0.053c-0.266,0.053-0.533,0.107-0.693,0.16
	c-0.083,0.041-0.071,0.114-0.21,0.12c0.059-0.106,0.12-0.211,0.181-0.317c0.074-0.011,0.106-0.04,0.135-0.07
	c0.213-0.107,0.479-0.213,0.799-0.267c0.639-0.16,1.439-0.267,2.505-0.32c0.213,0,0.427,0,0.64,0
	c-0.214-0.053-0.374-0.107-0.587-0.16c-0.96-0.16-1.708-0.267-2.241-0.267c-0.267,0-0.427,0-0.586,0.053
	c-0.01,0.003-0.03,0.001-0.046,0.002c0.068-0.107,0.135-0.216,0.205-0.322c0.16-0.053,0.373-0.107,0.639-0.107
	c0.586-0.107,1.333-0.053,2.293,0.053c0.213,0,0.427,0.053,0.64,0.053c-0.214-0.107-0.374-0.16-0.534-0.213
	c-0.854-0.32-1.548-0.533-1.975-0.64c-0.193-0.048-0.336-0.052-0.441-0.052c0.067-0.094,0.132-0.19,0.2-0.283
	c0.135-0.031,0.274-0.038,0.453-0.038c0.48,0.053,1.174,0.16,2.081,0.427c0.214,0.053,0.374,0.053,0.587,0.107
	c-0.16-0.107-0.321-0.213-0.481-0.267c-0.748-0.48-1.336-0.747-1.71-0.96c-0.107-0.053-0.16-0.053-0.267-0.107
	c-0.03,0-0.011,0.032-0.035,0.024c0.082-0.102,0.16-0.207,0.243-0.308c0.018,0.005,0.032,0.009,0.057,0.018
	c0.053,0,0.16,0,0.267,0.053c0.427,0.107,1.014,0.32,1.816,0.747c0.16,0.053,0.374,0.107,0.534,0.16
	c-0.16-0.107-0.267-0.213-0.374-0.32c-0.695-0.587-1.177-1.013-1.498-1.28c-0.053,0,0.053,0.053-0.107-0.053
	c-0.099-0.099,0.028-0.017-0.037-0.088c0.081-0.09,0.161-0.181,0.243-0.27c0.056,0.016,0.125,0.05,0.166,0.092
	c0.374,0.213,0.908,0.533,1.604,1.067c0.16,0.053,0.321,0.16,0.481,0.267c-0.107-0.16-0.214-0.267-0.321-0.427
	c-0.589-0.693-0.964-1.226-1.232-1.546c-0.031-0.031-0.046-0.077-0.062-0.122c0.095-0.097,0.192-0.193,0.289-0.289
	c0.03,0.03,0.061,0.061,0.091,0.091c0.268,0.32,0.749,0.747,1.391,1.387c0.107,0.107,0.214,0.213,0.375,0.373
	c-0.107-0.16-0.161-0.32-0.269-0.533c-0.429-0.747-0.751-1.387-0.913-1.813c-0.04-0.079-0.021-0.012-0.052-0.102
	c0.107-0.099,0.216-0.196,0.325-0.294c0.015,0.025,0.029,0.05,0.046,0.076c0.215,0.427,0.59,0.96,1.073,1.707
	c0.16,0.16,0.268,0.32,0.375,0.427c-0.054-0.16-0.108-0.373-0.215-0.533c-0.323-0.907-0.539-1.6-0.647-2.133
	c-0.006-0.029-0.009-0.053-0.013-0.08c0.115-0.096,0.231-0.19,0.348-0.285c0.012,0.033,0.022,0.065,0.038,0.098
	c0.162,0.48,0.377,1.12,0.807,1.973c0.107,0.213,0.161,0.32,0.269,0.533c-0.001-0.213-0.055-0.427-0.109-0.64
	c-0.217-1.013-0.326-1.813-0.328-2.4c0-0.036,0-0.065,0-0.099c0.118-0.09,0.24-0.176,0.36-0.264c0.005,0.034,0.006,0.06,0.013,0.096
	c0.055,0.587,0.218,1.387,0.541,2.346c0.054,0.213,0.108,0.373,0.162,0.587c-0.001-0.267-0.002-0.48-0.002-0.693
	c-0.111-1.12-0.113-1.973-0.009-2.666c0.005-0.07,0.014-0.131,0.025-0.19c0.114-0.078,0.232-0.15,0.348-0.226
	c0,0.065,0,0.13,0,0.203c0.002,0.64,0.059,1.547,0.222,2.613c0.001,0.213,0.055,0.373,0.109,0.587
	c-0.001-0.213,0.052-0.427,0.051-0.693c0.049-1.173,0.153-2.133,0.31-2.933c0.027-0.097,0.055-0.183,0.082-0.273
	c0.122-0.074,0.249-0.142,0.372-0.215c-0.131,0.798-0.183,1.868-0.178,3.208c0.001,0.213,0.055,0.427,0.056,0.693
	c0.052-0.267,0.105-0.533,0.157-0.747c0.218-1.502,0.496-2.711,0.82-3.639c0.136-0.073,0.274-0.141,0.411-0.211
	c-0.268,0.923-0.487,2.154-0.645,3.69c0.001,0.213-0.052,0.48-0.051,0.747c0.106-0.267,0.158-0.533,0.264-0.8
	c0.439-1.677,0.901-3.042,1.386-4.104c0.147-0.068,0.294-0.135,0.442-0.2c-0.439,1.082-0.853,2.493-1.242,4.251
	c-0.053,0.213-0.052,0.48-0.104,0.747c0.106-0.267,0.211-0.533,0.317-0.8c0.716-1.902,1.434-3.446,2.152-4.662
	c0.136-0.052,0.268-0.11,0.405-0.16c-0.629,1.248-1.272,2.86-1.971,4.822c-0.052,0.267-0.158,0.533-0.211,0.8
	c0.159-0.267,0.265-0.533,0.424-0.8c1.097-2.124,2.126-3.902,3.091-5.268c0.135-0.041,0.272-0.077,0.408-0.116
	c-0.901,1.384-1.87,3.219-2.911,5.491c-0.106,0.213-0.212,0.48-0.317,0.8c0.159-0.267,0.318-0.533,0.531-0.8
	c1.522-2.391,2.916-4.349,4.222-5.883c0.159-0.036,0.316-0.077,0.476-0.11c-1.291,1.564-2.632,3.624-4.11,6.153
	c-0.159,0.267-0.318,0.533-0.424,0.8c0.212-0.267,0.372-0.48,0.584-0.747c2.104-2.69,4.067-4.895,5.791-6.508
	c0.12-0.016,0.24-0.032,0.36-0.046c-1.656,1.669-3.55,3.982-5.563,6.821c-0.213,0.213-0.372,0.48-0.531,0.747
	c0.213-0.213,0.478-0.427,0.691-0.693c2.779-2.948,5.406-5.362,7.641-7.042c0.104-0.003,0.208-0.006,0.313-0.008
	c-2.147,1.741-4.685,4.269-7.419,7.37c-0.212,0.267-0.425,0.533-0.637,0.747c0.266-0.213,0.532-0.427,0.798-0.64
	c3.654-3.189,7.084-5.748,9.892-7.4c0.087,0.007,0.174,0.013,0.261,0.021c-2.718,1.741-6.078,4.461-9.672,7.806
	c-0.266,0.213-0.478,0.427-0.744,0.693c0.319-0.213,0.585-0.373,0.905-0.587c4.695-3.338,9.185-5.986,12.62-7.454
	c0.059,0.013,0.118,0.027,0.177,0.04c-3.335,1.577-7.713,4.35-12.369,7.894c-0.319,0.213-0.585,0.427-0.851,0.64
	c0.319-0.16,0.639-0.32,0.958-0.48c5.997-3.405,11.76-5.963,15.794-7.013c0.018,0.007,0.037,0.013,0.056,0.02
	c-3.929,1.2-9.561,3.961-15.475,7.527c-0.319,0.213-0.585,0.373-0.905,0.587c0.32-0.107,0.639-0.267,1.012-0.373
	c6.816-2.986,13.474-5.12,17.898-5.759c-4.317,0.8-10.868,3.2-17.63,6.346c-0.32,0.16-0.639,0.32-0.958,0.48
	c0.373-0.107,0.692-0.213,1.012-0.267c7.245-2.24,14.386-3.733,19.078-3.946c-4.638,0.427-11.671,2.187-18.862,4.586
	c-0.32,0.107-0.639,0.267-1.012,0.373c0.373-0.053,0.746-0.107,1.066-0.16c7.461-1.387,14.978-2.133,19.938-1.92
	c-4.906,0-12.369,1.013-19.776,2.613c-0.373,0.107-0.693,0.213-1.066,0.267c0.373,0,0.693-0.053,1.066-0.053
	c7.624-0.48,15.357-0.427,20.426,0.267c-5.068-0.48-12.8-0.267-20.37,0.48c-0.373,0.053-0.746,0.107-1.066,0.16
	c0.32,0.053,0.693,0.053,1.067,0.107c7.627,0.373,15.523,1.333,20.594,2.56c-5.123-1.013-13.018-1.707-20.644-1.813
	c-0.373,0-0.747,0-1.12,0C26.354,20.649,26.674,20.702,27.048,20.809z"/>
<path fill-rule="evenodd" clip-rule="evenodd" fill="#1E9F38" d="M41.423,8.515c11.716,2.662,20.525,13.151,20.569,25.648
	c0.051,14.501-11.715,26.308-26.216,26.308c-1.307,0-2.59-0.099-3.846-0.282c1.884,0.427,3.841,0.661,5.854,0.661
	C52.285,60.85,64.05,49.043,64,34.542C63.954,21.339,54.126,10.373,41.423,8.515z"/>
</svg>
