<?xml version="1.0" encoding="utf-8"?>
<!-- Generator: Adobe Illustrator 21.0.2, SVG Export Plug-In . SVG Version: 6.00 Build 0)  -->
<svg version="1.1" id="Слой_1" xmlns="http://www.w3.org/2000/svg" xmlns:xlink="http://www.w3.org/1999/xlink" x="0px" y="0px"
	 viewBox="0 0 143 143" enable-background="new 0 0 143 143" xml:space="preserve">
<circle fill="#1D9F38" cx="71.5" cy="71.5" r="71.5"/>
<g>
	<g>
		<path fill="#FFFFFF" d="M63.027,93.589c-8.329,0-14.145-6.502-14.145-15.811c0-1.341-1.087-2.428-2.428-2.428
			c-1.341,0-2.428,1.087-2.428,2.428c0,11.975,7.991,20.667,19.001,20.667c1.341,0,2.428-1.087,2.428-2.428
			S64.368,93.589,63.027,93.589z M94.07,49.564c-5.553-6.146-13.379-9.53-22.036-9.53c-1.341,0-2.428,1.087-2.428,2.428
			c0,1.341,1.087,2.428,2.428,2.428c15.105,0,25.655,11.71,25.655,28.478c0,1.341,1.087,2.428,2.428,2.428
			c1.341,0,2.428-1.087,2.428-2.428C102.545,64.066,99.535,55.612,94.07,49.564z M71.5,30.5c-22.607,0-41,18.392-41,41
			s18.393,41,41,41s41-18.393,41-41S94.107,30.5,71.5,30.5z M71.5,107.644c-19.93,0-36.144-16.214-36.144-36.144
			c0-19.93,16.214-36.144,36.144-36.144c19.93,0,36.144,16.214,36.144,36.144C107.644,91.43,91.43,107.644,71.5,107.644z"/>
	</g>
</g>
</svg>
