<?xml version="1.0" encoding="utf-8"?>
<!-- Generator: Adobe Illustrator 21.0.2, SVG Export Plug-In . SVG Version: 6.00 Build 0)  -->
<svg version="1.1" id="Слой_1" xmlns="http://www.w3.org/2000/svg" xmlns:xlink="http://www.w3.org/1999/xlink" x="0px" y="0px"
	 viewBox="0 0 143 143" enable-background="new 0 0 143 143" xml:space="preserve">
<circle fill="#1D9F38" cx="71.5" cy="71.5" r="71.5"/>
<g>
	<g>
		<path fill="#FFFFFF" d="M54.838,73.967L46.84,62.918h-3.404v17.165h3.637V69.326l7.765,10.757h3.639V62.918h-3.639V73.967z
			 M66.122,73.132h7.301v-3.266h-7.301v-3.534h8.116v-3.413H62.486v17.165h12.009v-3.389h-8.372V73.132z M115.661,81.242
			c2.266-2.684,4.839-5.728,4.839-9.74c0-4.013-2.573-7.057-4.842-9.744c-1.283-1.519-2.609-3.086-2.998-4.343
			c-0.423-1.374-0.226-3.541-0.036-5.638c0.318-3.513,0.68-7.489-1.482-10.614c-2.177-3.151-5.902-4.018-9.184-4.783
			c-1.939-0.452-3.942-0.915-5.026-1.748c-1.053-0.809-2.08-2.65-3.068-4.431c-1.712-3.079-3.653-6.57-7.222-7.792
			C85.844,22.136,84.99,22,84.102,22c-2.567,0-5.017,1.119-7.387,2.203c-1.862,0.851-3.791,1.732-5.215,1.732
			s-3.353-0.881-5.216-1.732C63.914,23.119,61.464,22,58.898,22c-0.889,0-1.743,0.136-2.542,0.409
			c-3.567,1.223-5.507,4.715-7.224,7.795c-0.989,1.783-2.012,3.622-3.063,4.428c-1.081,0.826-3.083,1.293-5.019,1.745
			c-3.29,0.768-7.013,1.635-9.191,4.786c-2.163,3.125-1.801,7.105-1.482,10.617c0.19,2.096,0.386,4.264-0.036,5.638
			c-0.39,1.254-1.715,2.825-2.998,4.34c-2.269,2.687-4.842,5.731-4.842,9.744c0,4.009,2.569,7.053,4.836,9.733
			c1.283,1.519,2.609,3.09,2.998,4.357c0.426,1.374,0.233,3.541,0.043,5.638c-0.319,3.509-0.677,7.489,1.482,10.61
			c2.178,3.154,5.905,4.022,9.194,4.786c1.936,0.449,3.935,0.913,5.013,1.738c1.053,0.807,2.077,2.649,3.068,4.432
			c1.709,3.079,3.654,6.573,7.222,7.795c0.796,0.271,1.65,0.409,2.536,0.409c2.566,0,5.02-1.119,7.387-2.2
			c1.865-0.851,3.794-1.731,5.222-1.731c1.424,0,3.353,0.877,5.218,1.731c2.367,1.081,4.821,2.2,7.384,2.2
			c0.888,0,1.742-0.139,2.542-0.409c3.567-1.219,5.505-4.708,7.218-7.789c0.992-1.783,2.015-3.625,3.075-4.431
			c1.081-0.832,3.084-1.296,5.02-1.748c3.282-0.761,7.007-1.626,9.187-4.779c2.162-3.129,1.801-7.108,1.482-10.621
			c-0.19-2.097-0.386-4.264,0.037-5.634C113.048,84.327,114.375,82.757,115.661,81.242z M111.086,76.949
			c-1.706,2.013-3.467,4.099-4.251,6.647c-0.815,2.645-0.558,5.485-0.309,8.237c0.226,2.489,0.459,5.063-0.337,6.211
			c-0.811,1.177-3.222,1.738-5.555,2.283c-2.551,0.594-5.191,1.206-7.298,2.825c-2.094,1.599-3.448,4.034-4.759,6.389
			c-1.216,2.187-2.478,4.448-3.824,4.912c-1.17,0.391-3.458-0.594-5.598-1.571c-2.438-1.116-4.959-2.264-7.653-2.264
			c-2.698,0-5.219,1.148-7.656,2.261c-2.141,0.974-4.441,1.961-5.598,1.571c-1.348-0.459-2.612-2.725-3.828-4.918
			c-1.307-2.351-2.662-4.786-4.75-6.386c-2.112-1.619-4.75-2.229-7.297-2.823c-2.331-0.541-4.744-1.102-5.559-2.284
			c-0.792-1.15-0.56-3.718-0.339-6.204c0.248-2.755,0.505-5.602-0.312-8.24c-0.781-2.551-2.542-4.635-4.248-6.65
			c-1.614-1.91-3.286-3.89-3.286-5.444c0-1.555,1.675-3.538,3.291-5.448c1.703-2.016,3.464-4.099,4.248-6.643
			c0.815-2.648,0.557-5.489,0.309-8.24c-0.226-2.49-0.459-5.061,0.336-6.212c0.812-1.177,3.228-1.742,5.562-2.283
			c2.548-0.594,5.185-1.207,7.298-2.826c2.085-1.602,3.436-4.031,4.747-6.383c1.216-2.19,2.481-4.456,3.831-4.921
			c1.176-0.413,3.458,0.593,5.598,1.574c2.438,1.112,4.958,2.264,7.654,2.264c2.694,0,5.215-1.151,7.653-2.264
			c2.14-0.977,4.44-1.983,5.594-1.574c1.35,0.461,2.612,2.725,3.832,4.915c1.307,2.351,2.661,4.786,4.75,6.385
			c2.116,1.622,4.756,2.235,7.307,2.832c2.328,0.541,4.741,1.103,5.552,2.28c0.794,1.151,0.561,3.721,0.337,6.208
			c-0.249,2.751-0.506,5.596,0.309,8.241c0.783,2.544,2.545,4.628,4.247,6.643c1.618,1.912,3.293,3.896,3.293,5.451
			C114.375,73.056,112.703,75.036,111.086,76.949z M92.382,72.789l-2.869-9.872h-3.801l-2.891,9.872l-3.218-9.872h-3.941
			l5.689,17.165h2.706l3.544-11.934l3.566,11.934h2.706l5.69-17.165h-3.941L92.382,72.789z"/>
	</g>
</g>
</svg>
