<?xml version="1.0" encoding="utf-8"?>
<!-- Generator: Adobe Illustrator 21.0.2, SVG Export Plug-In . SVG Version: 6.00 Build 0)  -->
<svg version="1.1" id="Слой_1" xmlns="http://www.w3.org/2000/svg" xmlns:xlink="http://www.w3.org/1999/xlink" x="0px" y="0px"
	 viewBox="0 0 143 143" enable-background="new 0 0 143 143" xml:space="preserve">
<circle fill="#1D9F38" cx="71.5" cy="71.5" r="71.5"/>
<g>
	<g>
		<path fill="#FFFFFF" d="M85.502,83.783c-6.114,0-11.085,4.962-11.085,11.062c0,6.101,4.971,11.063,11.085,11.063
			c6.112,0,11.089-4.962,11.089-11.063C96.591,88.744,91.616,83.783,85.502,83.783z M85.502,100.32
			c-3.025,0-5.484-2.455-5.484-5.476c0-3.02,2.459-5.475,5.484-5.475c3.025,0,5.487,2.455,5.487,5.475
			C90.988,97.865,88.527,100.32,85.502,100.32z M106.802,41.657L87.344,23.586C86.939,23.209,86.405,23,85.851,23H55.973
			c-0.578,0-1.132,0.228-1.543,0.633L36.149,41.704c-0.415,0.411-0.649,0.969-0.649,1.552v74.557c0,1.207,0.981,2.186,2.192,2.186
			h67.617c1.21,0,2.192-0.979,2.192-2.186V43.257C107.5,42.65,107.247,42.071,106.802,41.657z M103.117,115.629H39.883V44.168
			l16.992-16.796h28.113l18.129,16.837V115.629z M71.5,41.675c1.979,0,3.584-1.6,3.584-3.575s-1.605-3.575-3.584-3.575
			c-1.979,0-3.584,1.6-3.584,3.575S69.521,41.675,71.5,41.675z M57.498,77.978c6.114,0,11.092-4.964,11.092-11.06
			c0-6.101-4.975-11.062-11.092-11.062c-6.115,0-11.089,4.961-11.089,11.062C46.41,73.017,51.384,77.978,57.498,77.978z
			 M57.498,61.444c3.028,0,5.489,2.455,5.489,5.475c0,3.017-2.462,5.473-5.489,5.473c-3.025,0-5.488-2.456-5.488-5.473
			C52.011,63.899,54.474,61.444,57.498,61.444z M50.205,102.111c0.546,0.545,1.263,0.818,1.981,0.818c0.717,0,1.434-0.27,1.98-0.818
			L92.82,63.561c1.096-1.093,1.096-2.859,0-3.951c-1.095-1.092-2.865-1.092-3.96,0l-38.655,38.55
			C49.11,99.253,49.11,101.019,50.205,102.111z"/>
	</g>
</g>
</svg>
