<?xml version="1.0" encoding="utf-8"?>
<!-- Generator: Adobe Illustrator 21.0.2, SVG Export Plug-In . SVG Version: 6.00 Build 0)  -->
<svg version="1.1" id="Слой_1" xmlns="http://www.w3.org/2000/svg" xmlns:xlink="http://www.w3.org/1999/xlink" x="0px" y="0px"
	 viewBox="0 0 143 143" enable-background="new 0 0 143 143" xml:space="preserve">
<circle fill="#1D9F38" cx="71.5" cy="71.5" r="71.5"/>
<g>
	<g>
		<path fill="#FFFFFF" d="M75.155,101.906c0.043,0.004,0.077,0.009,0.111,0.009c1.514,0,3.029,0.007,4.543-0.005
			c0.364-0.003,0.714-0.127,1.002-0.354c0.613-0.482,0.896-1.105,0.791-1.902c-0.118-0.897-0.969-1.662-1.853-1.654
			c-1.029,0.01-2.058,0.002-3.087,0.002c-0.056,0-0.113-0.005-0.173-0.007v-1.271h5.135v-1.322h-6.47V101.906z M76.483,99.305h0.191
			c0.923,0,1.845-0.002,2.768,0.002c0.132,0,0.266,0.015,0.396,0.039c0.28,0.053,0.485,0.349,0.463,0.651
			c-0.021,0.293-0.283,0.579-0.557,0.58c-1.069,0.004-2.137,0-3.206-0.001c-0.011,0-0.022-0.005-0.055-0.014V99.305z
			 M64.601,100.281c-0.664-1.658-1.309-3.267-1.954-4.877h-1.279v6.498h1.317v-3.086c0.204,0.437,0.387,0.876,0.563,1.318
			c0.219,0.547,0.429,1.097,0.652,1.642c0.024,0.059,0.108,0.132,0.167,0.134c0.356,0.012,0.713,0.01,1.07,0.002
			c0.049-0.001,0.125-0.043,0.142-0.086c0.263-0.648,0.517-1.3,0.777-1.95c0.137-0.343,0.28-0.683,0.421-1.025
			c0.012,0.002,0.024,0.004,0.037,0.005v3.054h1.316v-6.508h-1.271C65.907,97.027,65.262,98.634,64.601,100.281z M52.736,101.91
			h1.304v-6.506h-1.304V101.91z M50.598,98.046c-0.335-0.057-0.685-0.034-1.028-0.042c-0.22-0.005-0.44-0.001-0.681-0.001v-2.605
			h-1.311v6.517c0.932,0,1.85,0.001,2.768-0.002c0.097,0,0.196-0.02,0.291-0.045c0.897-0.243,1.507-1.021,1.488-1.972
			C52.107,99.029,51.443,98.19,50.598,98.046z M50.214,100.578c-0.431,0.002-0.863,0.001-1.307,0.001v-1.236
			c0.473,0,0.933-0.019,1.39,0.007c0.324,0.018,0.522,0.325,0.494,0.685C50.768,100.328,50.507,100.576,50.214,100.578z
			 M66.954,41.256h-3.919v15.528h-3.834V41.256h-3.888v15.529h-3.831V41.254h-3.904v19.446h19.376V41.256z M94.085,100.566h-1.263
			v-5.162h-1.331v5.16h-1.232v-5.156h-1.312v6.501h6.462v-6.503h-1.324V100.566z M104.477,26.5H38.523
			c-1.117,0-2.023,0.91-2.023,2.033v85.934c0,1.123,0.906,2.033,2.023,2.033h65.955c1.117,0,2.023-0.91,2.023-2.033V28.533
			C106.5,27.41,105.595,26.5,104.477,26.5z M102.455,112.434h-61.91V30.566h61.91V112.434z M66.807,72.063v9.71h1.956v-3.858h5.755
			v3.855h1.95v-9.704h-1.966v3.856h-5.75v-3.857H66.807z M49.528,76.994c0.044,0.084,0.068,0.123,0.085,0.164
			c0.385,0.958,0.771,1.917,1.154,2.876c0.21,0.525,0.416,1.052,0.625,1.579c0.045,0.114,0.1,0.18,0.251,0.176
			c0.532-0.015,1.064-0.008,1.596-0.002c0.11,0.001,0.17-0.034,0.211-0.137c0.505-1.274,1.013-2.548,1.521-3.821
			c0.102-0.257,0.207-0.513,0.311-0.769c0.013,0.003,0.027,0.005,0.041,0.008v4.712h1.943v-9.717h-1.903
			c-0.978,2.442-1.949,4.863-2.936,7.328c-0.989-2.471-1.96-4.894-2.933-7.325h-1.92v9.707h1.953V76.994z M89.485,60.71
			c0.329,0,0.661-0.027,0.988-0.07c1.159-0.151,2.157-0.662,3.02-1.435c0.618-0.554,1.089-1.221,1.429-1.987
			c0.332-0.749,0.485-1.534,0.493-2.343c0.004-0.404-0.059-0.814-0.135-1.213c-0.214-1.119-0.748-2.079-1.53-2.894
			c-0.499-0.52-1.09-0.92-1.744-1.227c-0.722-0.339-1.484-0.526-2.273-0.529c-3.193-0.014-6.386-0.006-9.578-0.006H79.96v-3.854
			h15.45v-3.896H76.03v19.457h0.245C80.678,60.713,85.082,60.715,89.485,60.71z M79.958,52.953h0.229
			c3.152,0,6.303,0.008,9.455-0.005c0.911-0.004,1.661,0.64,1.817,1.518c0.119,0.671-0.034,1.272-0.487,1.771
			c-0.271,0.298-0.634,0.472-1.04,0.526c-0.149,0.02-0.301,0.035-0.451,0.035c-3.105,0.002-6.21,0.002-9.314,0.002h-0.209V52.953z
			 M95.397,72.063h-1.725c0,0.157-0.003,0.303,0,0.449c0.009,0.411-0.104,0.797-0.268,1.165c-0.316,0.712-0.828,1.244-1.507,1.624
			c-0.58,0.325-1.199,0.485-1.86,0.489c-0.632,0.004-1.263,0.001-1.895,0.002h-0.2v-3.724h-1.942v9.701h1.947v-3.992
			c0.045-0.007,0.067-0.014,0.09-0.014c0.69,0,1.38-0.007,2.07,0.005c0.219,0.004,0.44,0.04,0.654,0.089
			c0.915,0.207,1.657,0.686,2.21,1.451c0.442,0.611,0.697,1.288,0.699,2.051c0,0.134,0,0.267,0,0.414h1.744
			c0.029-0.752-0.004-1.486-0.22-2.199c-0.343-1.134-1.005-2.051-1.946-2.768C95.138,75.429,95.542,73.55,95.397,72.063z"/>
	</g>
</g>
</svg>
